<mxfile host="app.diagrams.net" modified="2020-07-26T11:58:40.329Z" agent="5.0 (Windows NT 10.0; Win64; x64) AppleWebKit/537.36 (KHTML, like Gecko) Chrome/84.0.4147.89 Safari/537.36" etag="P6JArIyxstHEz-pKt-a0" version="13.5.3" type="github">
  <diagram id="2f404044-711c-603c-8f00-f6bb4c023d3c" name="Page-1">
    <mxGraphModel dx="1422" dy="713" grid="1" gridSize="10" guides="1" tooltips="1" connect="1" arrows="1" fold="1" page="1" pageScale="1" pageWidth="1169" pageHeight="827" math="0" shadow="0">
      <root>
        <mxCell id="0" />
        <mxCell id="1" parent="0" />
        <mxCell id="B9GK1gkfg1LXfyqbqZmC-73" value="" style="edgeStyle=orthogonalEdgeStyle;rounded=0;orthogonalLoop=1;jettySize=auto;html=1;startArrow=classic;startFill=1;strokeColor=#006658;fontColor=#5C5C5C;curved=1;" edge="1" parent="1" source="B9GK1gkfg1LXfyqbqZmC-63" target="B9GK1gkfg1LXfyqbqZmC-71">
          <mxGeometry relative="1" as="geometry">
            <Array as="points">
              <mxPoint x="630" y="80" />
              <mxPoint x="630" y="80" />
            </Array>
          </mxGeometry>
        </mxCell>
        <mxCell id="B9GK1gkfg1LXfyqbqZmC-88" value="CRUD" style="edgeLabel;html=1;align=center;verticalAlign=middle;resizable=0;points=[];fontSize=13;fontColor=#5C5C5C;" vertex="1" connectable="0" parent="B9GK1gkfg1LXfyqbqZmC-73">
          <mxGeometry x="0.1421" y="1" relative="1" as="geometry">
            <mxPoint x="-107" y="1" as="offset" />
          </mxGeometry>
        </mxCell>
        <mxCell id="B9GK1gkfg1LXfyqbqZmC-75" value="&lt;font style=&quot;font-size: 13px&quot;&gt;STATISTIC&lt;/font&gt;" style="edgeStyle=orthogonalEdgeStyle;rounded=0;orthogonalLoop=1;jettySize=auto;html=1;startArrow=none;startFill=0;fontSize=17;strokeColor=#006658;fontColor=#5C5C5C;curved=1;" edge="1" parent="1" source="B9GK1gkfg1LXfyqbqZmC-63" target="B9GK1gkfg1LXfyqbqZmC-74">
          <mxGeometry x="-0.2965" y="-10" relative="1" as="geometry">
            <Array as="points">
              <mxPoint x="619" y="120" />
            </Array>
            <mxPoint as="offset" />
          </mxGeometry>
        </mxCell>
        <mxCell id="B9GK1gkfg1LXfyqbqZmC-84" style="edgeStyle=orthogonalEdgeStyle;rounded=0;orthogonalLoop=1;jettySize=auto;html=1;startArrow=none;startFill=0;fontSize=17;strokeColor=#006658;fontColor=#5C5C5C;curved=1;" edge="1" parent="1" source="B9GK1gkfg1LXfyqbqZmC-63" target="B9GK1gkfg1LXfyqbqZmC-67">
          <mxGeometry relative="1" as="geometry">
            <Array as="points">
              <mxPoint x="490" y="270" />
              <mxPoint x="295" y="270" />
            </Array>
          </mxGeometry>
        </mxCell>
        <mxCell id="B9GK1gkfg1LXfyqbqZmC-85" value="Next banner id" style="edgeLabel;html=1;align=center;verticalAlign=middle;resizable=0;points=[];fontSize=12;fontColor=#5C5C5C;" vertex="1" connectable="0" parent="B9GK1gkfg1LXfyqbqZmC-84">
          <mxGeometry x="-0.2789" y="-14" relative="1" as="geometry">
            <mxPoint x="-76" y="2" as="offset" />
          </mxGeometry>
        </mxCell>
        <mxCell id="B9GK1gkfg1LXfyqbqZmC-63" value="Banner-rotator&lt;br style=&quot;font-size: 12px;&quot;&gt;service" style="outlineConnect=0;dashed=0;verticalLabelPosition=top;verticalAlign=bottom;align=center;html=1;shape=mxgraph.aws3.elasticsearch_service;fillColor=#21C0A5;labelPosition=center;strokeColor=#006658;fontSize=12;labelBackgroundColor=none;labelBorderColor=#000000;" vertex="1" parent="1">
          <mxGeometry x="420" y="50" width="90" height="90" as="geometry" />
        </mxCell>
        <mxCell id="B9GK1gkfg1LXfyqbqZmC-70" value="&lt;font style=&quot;font-size: 13px;&quot;&gt;&lt;font style=&quot;font-size: 13px;&quot;&gt;CRUD&lt;/font&gt;&lt;br style=&quot;font-size: 13px;&quot;&gt;&lt;/font&gt;" style="edgeStyle=orthogonalEdgeStyle;rounded=0;orthogonalLoop=1;jettySize=auto;html=1;startArrow=classic;startFill=1;strokeColor=#006658;fontColor=#5C5C5C;curved=1;fontSize=13;" edge="1" parent="1" source="B9GK1gkfg1LXfyqbqZmC-76" target="B9GK1gkfg1LXfyqbqZmC-67">
          <mxGeometry x="-0.3051" y="-5" relative="1" as="geometry">
            <Array as="points">
              <mxPoint x="290" y="80" />
            </Array>
            <mxPoint as="offset" />
          </mxGeometry>
        </mxCell>
        <mxCell id="B9GK1gkfg1LXfyqbqZmC-80" value="&lt;font style=&quot;font-size: 13px;&quot;&gt;CRUD&lt;/font&gt;" style="edgeStyle=orthogonalEdgeStyle;rounded=0;orthogonalLoop=1;jettySize=auto;html=1;startArrow=none;startFill=0;fontSize=13;strokeColor=#006658;fontColor=#5C5C5C;curved=1;" edge="1" parent="1" source="B9GK1gkfg1LXfyqbqZmC-67" target="B9GK1gkfg1LXfyqbqZmC-63">
          <mxGeometry x="0.4949" relative="1" as="geometry">
            <Array as="points">
              <mxPoint x="295" y="80" />
            </Array>
            <mxPoint as="offset" />
          </mxGeometry>
        </mxCell>
        <mxCell id="B9GK1gkfg1LXfyqbqZmC-94" value="Admin panel" style="edgeLabel;html=1;align=center;verticalAlign=middle;resizable=0;points=[];fontSize=14;fontColor=#5C5C5C;" vertex="1" connectable="0" parent="B9GK1gkfg1LXfyqbqZmC-80">
          <mxGeometry x="-0.4961" y="3" relative="1" as="geometry">
            <mxPoint x="3.01" y="21.04" as="offset" />
          </mxGeometry>
        </mxCell>
        <mxCell id="B9GK1gkfg1LXfyqbqZmC-81" value="view" style="edgeStyle=orthogonalEdgeStyle;rounded=0;orthogonalLoop=1;jettySize=auto;html=1;entryX=1.009;entryY=0.722;entryDx=0;entryDy=0;entryPerimeter=0;startArrow=none;startFill=0;strokeColor=#006658;fontColor=#5C5C5C;curved=1;" edge="1" parent="1" source="B9GK1gkfg1LXfyqbqZmC-67" target="B9GK1gkfg1LXfyqbqZmC-77">
          <mxGeometry relative="1" as="geometry">
            <Array as="points">
              <mxPoint x="170" y="212" />
              <mxPoint x="170" y="212" />
            </Array>
          </mxGeometry>
        </mxCell>
        <mxCell id="B9GK1gkfg1LXfyqbqZmC-83" value="Get next banner/&lt;br&gt;Post click on banner" style="edgeStyle=orthogonalEdgeStyle;rounded=0;orthogonalLoop=1;jettySize=auto;html=1;entryX=0.5;entryY=1;entryDx=0;entryDy=0;entryPerimeter=0;startArrow=none;startFill=0;strokeColor=#006658;fontColor=#5C5C5C;curved=1;" edge="1" parent="1" source="B9GK1gkfg1LXfyqbqZmC-67" target="B9GK1gkfg1LXfyqbqZmC-63">
          <mxGeometry x="-0.3375" relative="1" as="geometry">
            <Array as="points">
              <mxPoint x="465" y="197" />
            </Array>
            <mxPoint as="offset" />
          </mxGeometry>
        </mxCell>
        <mxCell id="B9GK1gkfg1LXfyqbqZmC-67" value="Web-site" style="aspect=fixed;perimeter=ellipsePerimeter;html=1;align=right;shadow=0;dashed=0;spacingTop=3;image;image=img/lib/active_directory/workspace_site.svg;labelPosition=left;verticalLabelPosition=bottom;verticalAlign=top;fillColor=#21C0A5;strokeColor=#006658;fontSize=12;labelBackgroundColor=none;labelBorderColor=#000000;" vertex="1" parent="1">
          <mxGeometry x="250" y="152.88" width="89.82" height="87.12" as="geometry" />
        </mxCell>
        <mxCell id="B9GK1gkfg1LXfyqbqZmC-71" value="DB" style="image;html=1;image=img/lib/clip_art/computers/Database_128x128.png;fillColor=#21C0A5;strokeColor=#006658;labelPosition=center;verticalLabelPosition=top;align=center;verticalAlign=bottom;labelBorderColor=#000000;labelBackgroundColor=none;" vertex="1" parent="1">
          <mxGeometry x="820" y="45.46" width="80" height="80" as="geometry" />
        </mxCell>
        <mxCell id="B9GK1gkfg1LXfyqbqZmC-89" style="edgeStyle=orthogonalEdgeStyle;rounded=0;orthogonalLoop=1;jettySize=auto;html=1;entryX=0.5;entryY=1;entryDx=0;entryDy=0;startArrow=none;startFill=0;fontSize=17;horizontal=1;strokeColor=#006658;fontColor=#5C5C5C;curved=1;" edge="1" parent="1" source="B9GK1gkfg1LXfyqbqZmC-114" target="B9GK1gkfg1LXfyqbqZmC-71">
          <mxGeometry relative="1" as="geometry">
            <Array as="points" />
          </mxGeometry>
        </mxCell>
        <mxCell id="B9GK1gkfg1LXfyqbqZmC-95" style="edgeStyle=orthogonalEdgeStyle;rounded=0;orthogonalLoop=1;jettySize=auto;html=1;startArrow=none;startFill=0;fontSize=17;strokeColor=#006658;fontColor=#5C5C5C;curved=1;exitX=1;exitY=0.5;exitDx=0;exitDy=0;exitPerimeter=0;" edge="1" parent="1" source="B9GK1gkfg1LXfyqbqZmC-114" target="B9GK1gkfg1LXfyqbqZmC-92">
          <mxGeometry relative="1" as="geometry">
            <Array as="points">
              <mxPoint x="1003" y="249" />
            </Array>
          </mxGeometry>
        </mxCell>
        <mxCell id="B9GK1gkfg1LXfyqbqZmC-96" style="edgeStyle=orthogonalEdgeStyle;rounded=0;orthogonalLoop=1;jettySize=auto;html=1;startArrow=none;startFill=0;fontSize=17;strokeColor=#006658;fontColor=#5C5C5C;curved=1;" edge="1" parent="1" source="B9GK1gkfg1LXfyqbqZmC-114" target="B9GK1gkfg1LXfyqbqZmC-91">
          <mxGeometry relative="1" as="geometry">
            <Array as="points">
              <mxPoint x="900" y="179" />
            </Array>
          </mxGeometry>
        </mxCell>
        <mxCell id="B9GK1gkfg1LXfyqbqZmC-97" value="&lt;font style=&quot;font-size: 13px;&quot;&gt;save clicks/show&lt;span style=&quot;background-color: rgb(255, 255, 255); font-size: 13px;&quot;&gt;&lt;br style=&quot;font-size: 13px;&quot;&gt;&lt;/span&gt;&lt;div style=&quot;text-align: center; font-size: 13px;&quot;&gt;&lt;span style=&quot;background-color: rgb(248, 249, 250); color: rgb(34, 34, 34); font-family: arial, sans-serif; text-align: left; font-size: 13px;&quot;&gt;&amp;nbsp;statistics in different&amp;nbsp;&lt;/span&gt;&lt;/div&gt;&lt;div style=&quot;text-align: center; font-size: 13px;&quot;&gt;&lt;span style=&quot;background-color: rgb(248, 249, 250); color: rgb(34, 34, 34); font-family: arial, sans-serif; text-align: left; font-size: 13px;&quot;&gt;storages&lt;/span&gt;&lt;/div&gt;&lt;/font&gt;" style="edgeLabel;html=1;align=center;verticalAlign=middle;resizable=0;points=[];fontSize=13;fontColor=#5C5C5C;" vertex="1" connectable="0" parent="B9GK1gkfg1LXfyqbqZmC-96">
          <mxGeometry x="-0.381" y="1" relative="1" as="geometry">
            <mxPoint x="24" y="-8" as="offset" />
          </mxGeometry>
        </mxCell>
        <mxCell id="B9GK1gkfg1LXfyqbqZmC-74" value="Queue Manager/ Kafka" style="outlineConnect=0;gradientDirection=north;fillColor=#d0cee2;strokeColor=#56517e;dashed=0;verticalLabelPosition=top;verticalAlign=bottom;align=center;fontSize=12;fontStyle=0;aspect=fixed;shape=mxgraph.aws4.resourceIcon;resIcon=mxgraph.aws4.managed_streaming_for_kafka;labelPosition=center;labelBackgroundColor=#FCF5FF;html=1;labelBorderColor=#000000;whiteSpace=wrap;" vertex="1" parent="1">
          <mxGeometry x="585" y="210" width="78" height="78" as="geometry" />
        </mxCell>
        <mxCell id="B9GK1gkfg1LXfyqbqZmC-76" value="Admin&lt;br&gt;" style="shadow=0;dashed=0;html=1;strokeColor=#56517e;fillColor=#d0cee2;labelPosition=center;verticalLabelPosition=bottom;verticalAlign=top;align=center;outlineConnect=0;shape=mxgraph.veeam.portal_admin;" vertex="1" parent="1">
          <mxGeometry x="80" y="50" width="64.4" height="70.92" as="geometry" />
        </mxCell>
        <mxCell id="B9GK1gkfg1LXfyqbqZmC-79" value="clicks" style="edgeStyle=orthogonalEdgeStyle;rounded=0;orthogonalLoop=1;jettySize=auto;html=1;startArrow=none;startFill=0;strokeColor=#006658;fontColor=#5C5C5C;curved=1;" edge="1" parent="1" source="B9GK1gkfg1LXfyqbqZmC-77" target="B9GK1gkfg1LXfyqbqZmC-67">
          <mxGeometry relative="1" as="geometry">
            <Array as="points">
              <mxPoint x="170" y="180" />
              <mxPoint x="170" y="180" />
            </Array>
          </mxGeometry>
        </mxCell>
        <mxCell id="B9GK1gkfg1LXfyqbqZmC-103" value="Browser" style="edgeLabel;html=1;align=center;verticalAlign=middle;resizable=0;points=[];fontSize=14;fontColor=#5C5C5C;horizontal=0;" vertex="1" connectable="0" parent="B9GK1gkfg1LXfyqbqZmC-79">
          <mxGeometry x="0.7738" y="-1" relative="1" as="geometry">
            <mxPoint x="-12.399999999999999" y="15.440000000000001" as="offset" />
          </mxGeometry>
        </mxCell>
        <mxCell id="B9GK1gkfg1LXfyqbqZmC-77" value="User" style="verticalLabelPosition=bottom;html=1;verticalAlign=top;align=center;strokeColor=#56517e;fillColor=#d0cee2;shape=mxgraph.azure.user;" vertex="1" parent="1">
          <mxGeometry x="80" y="161.44" width="64.4" height="70" as="geometry" />
        </mxCell>
        <mxCell id="B9GK1gkfg1LXfyqbqZmC-91" value="NoSQL" style="outlineConnect=0;gradientDirection=north;fillColor=#d0cee2;strokeColor=#56517e;dashed=0;verticalLabelPosition=top;verticalAlign=bottom;align=center;html=1;fontSize=12;fontStyle=0;aspect=fixed;shape=mxgraph.aws4.resourceIcon;resIcon=mxgraph.aws4.elastic_file_system;labelPosition=center;labelBorderColor=#000000;" vertex="1" parent="1">
          <mxGeometry x="997.48" y="140" width="78" height="78" as="geometry" />
        </mxCell>
        <mxCell id="B9GK1gkfg1LXfyqbqZmC-92" value="Filesystem" style="outlineConnect=0;fillColor=#d0cee2;strokeColor=#56517e;dashed=0;verticalLabelPosition=top;verticalAlign=bottom;align=center;html=1;fontSize=12;fontStyle=0;aspect=fixed;pointerEvents=1;shape=mxgraph.aws4.file_system;labelPosition=center;labelBorderColor=#000000;" vertex="1" parent="1">
          <mxGeometry x="990" y="301.12" width="85.48" height="80" as="geometry" />
        </mxCell>
        <mxCell id="B9GK1gkfg1LXfyqbqZmC-108" style="edgeStyle=orthogonalEdgeStyle;curved=1;rounded=0;orthogonalLoop=1;jettySize=auto;html=1;strokeColor=#006658;fillColor=#21C0A5;fontSize=17;fontColor=#000000;" edge="1" parent="1" source="B9GK1gkfg1LXfyqbqZmC-105" target="B9GK1gkfg1LXfyqbqZmC-74">
          <mxGeometry relative="1" as="geometry" />
        </mxCell>
        <mxCell id="B9GK1gkfg1LXfyqbqZmC-111" value="STATISTIC" style="edgeLabel;html=1;align=center;verticalAlign=middle;resizable=0;points=[];fontSize=13;fontColor=#000000;" vertex="1" connectable="0" parent="B9GK1gkfg1LXfyqbqZmC-108">
          <mxGeometry x="0.3605" y="-17" relative="1" as="geometry">
            <mxPoint x="-61" y="10" as="offset" />
          </mxGeometry>
        </mxCell>
        <mxCell id="B9GK1gkfg1LXfyqbqZmC-105" value="Banner-rotator&lt;br style=&quot;font-size: 12px;&quot;&gt;service" style="outlineConnect=0;dashed=0;verticalLabelPosition=top;verticalAlign=bottom;align=center;html=1;shape=mxgraph.aws3.elasticsearch_service;fillColor=#21C0A5;labelPosition=center;strokeColor=#006658;fontSize=12;labelBackgroundColor=none;labelBorderColor=#000000;" vertex="1" parent="1">
          <mxGeometry x="420" y="350" width="90" height="90" as="geometry" />
        </mxCell>
        <mxCell id="B9GK1gkfg1LXfyqbqZmC-109" style="edgeStyle=orthogonalEdgeStyle;curved=1;rounded=0;orthogonalLoop=1;jettySize=auto;html=1;strokeColor=#006658;fillColor=#21C0A5;fontSize=17;fontColor=#000000;" edge="1" parent="1" source="B9GK1gkfg1LXfyqbqZmC-106" target="B9GK1gkfg1LXfyqbqZmC-74">
          <mxGeometry relative="1" as="geometry" />
        </mxCell>
        <mxCell id="B9GK1gkfg1LXfyqbqZmC-112" value="STATISTIC" style="edgeLabel;html=1;align=center;verticalAlign=middle;resizable=0;points=[];fontSize=13;fontColor=#000000;horizontal=1;" vertex="1" connectable="0" parent="B9GK1gkfg1LXfyqbqZmC-109">
          <mxGeometry x="-0.1696" y="27" relative="1" as="geometry">
            <mxPoint y="-27" as="offset" />
          </mxGeometry>
        </mxCell>
        <mxCell id="B9GK1gkfg1LXfyqbqZmC-106" value="Banner-rotator&lt;br style=&quot;font-size: 12px;&quot;&gt;service" style="outlineConnect=0;dashed=0;verticalLabelPosition=top;verticalAlign=bottom;align=center;html=1;shape=mxgraph.aws3.elasticsearch_service;fillColor=#21C0A5;labelPosition=center;strokeColor=#006658;fontSize=12;labelBackgroundColor=none;labelBorderColor=#000000;" vertex="1" parent="1">
          <mxGeometry x="420" y="496" width="90" height="90" as="geometry" />
        </mxCell>
        <mxCell id="B9GK1gkfg1LXfyqbqZmC-115" value="" style="edgeStyle=orthogonalEdgeStyle;curved=1;rounded=0;orthogonalLoop=1;jettySize=auto;html=1;strokeColor=#006658;fillColor=#21C0A5;fontSize=17;fontColor=#000000;endArrow=none;endFill=0;startArrow=classic;startFill=1;" edge="1" parent="1" source="B9GK1gkfg1LXfyqbqZmC-114" target="B9GK1gkfg1LXfyqbqZmC-74">
          <mxGeometry relative="1" as="geometry" />
        </mxCell>
        <mxCell id="B9GK1gkfg1LXfyqbqZmC-114" value="Aggregator&lt;br style=&quot;font-size: 12px;&quot;&gt;service" style="outlineConnect=0;dashed=0;verticalLabelPosition=top;verticalAlign=bottom;align=center;html=1;shape=mxgraph.aws3.elasticsearch_service;fillColor=#21C0A5;labelPosition=center;strokeColor=#006658;fontSize=12;labelBackgroundColor=none;labelBorderColor=#000000;whiteSpace=wrap;" vertex="1" parent="1">
          <mxGeometry x="720" y="204" width="90" height="90" as="geometry" />
        </mxCell>
        <mxCell id="B9GK1gkfg1LXfyqbqZmC-118" style="edgeStyle=orthogonalEdgeStyle;curved=1;rounded=0;orthogonalLoop=1;jettySize=auto;html=1;startArrow=none;startFill=0;endArrow=classic;endFill=1;strokeColor=#006658;fillColor=#21C0A5;fontSize=14;fontColor=#000000;" edge="1" parent="1" source="B9GK1gkfg1LXfyqbqZmC-117" target="B9GK1gkfg1LXfyqbqZmC-105">
          <mxGeometry relative="1" as="geometry" />
        </mxCell>
        <mxCell id="B9GK1gkfg1LXfyqbqZmC-117" value="Web-site" style="aspect=fixed;perimeter=ellipsePerimeter;html=1;align=right;shadow=0;dashed=0;spacingTop=3;image;image=img/lib/active_directory/workspace_site.svg;labelPosition=left;verticalLabelPosition=bottom;verticalAlign=top;fillColor=#21C0A5;strokeColor=#006658;fontSize=12;labelBackgroundColor=none;labelBorderColor=#000000;" vertex="1" parent="1">
          <mxGeometry x="250" y="294" width="89.82" height="87.12" as="geometry" />
        </mxCell>
        <mxCell id="B9GK1gkfg1LXfyqbqZmC-120" style="edgeStyle=orthogonalEdgeStyle;curved=1;rounded=0;orthogonalLoop=1;jettySize=auto;html=1;startArrow=none;startFill=0;endArrow=classic;endFill=1;strokeColor=#006658;fillColor=#21C0A5;fontSize=14;fontColor=#000000;" edge="1" parent="1" source="B9GK1gkfg1LXfyqbqZmC-119" target="B9GK1gkfg1LXfyqbqZmC-106">
          <mxGeometry relative="1" as="geometry" />
        </mxCell>
        <mxCell id="B9GK1gkfg1LXfyqbqZmC-119" value="Web-site" style="aspect=fixed;perimeter=ellipsePerimeter;html=1;align=right;shadow=0;dashed=0;spacingTop=3;image;image=img/lib/active_directory/workspace_site.svg;labelPosition=left;verticalLabelPosition=bottom;verticalAlign=top;fillColor=#21C0A5;strokeColor=#006658;fontSize=12;labelBackgroundColor=none;labelBorderColor=#000000;" vertex="1" parent="1">
          <mxGeometry x="250" y="506" width="89.82" height="87.12" as="geometry" />
        </mxCell>
        <mxCell id="B9GK1gkfg1LXfyqbqZmC-122" style="edgeStyle=orthogonalEdgeStyle;curved=1;rounded=0;orthogonalLoop=1;jettySize=auto;html=1;startArrow=none;startFill=0;endArrow=classic;endFill=1;strokeColor=#006658;fillColor=#21C0A5;fontSize=14;fontColor=#000000;" edge="1" parent="1" source="B9GK1gkfg1LXfyqbqZmC-121" target="B9GK1gkfg1LXfyqbqZmC-105">
          <mxGeometry relative="1" as="geometry" />
        </mxCell>
        <mxCell id="B9GK1gkfg1LXfyqbqZmC-121" value="Web-site" style="aspect=fixed;perimeter=ellipsePerimeter;html=1;align=right;shadow=0;dashed=0;spacingTop=3;image;image=img/lib/active_directory/workspace_site.svg;labelPosition=left;verticalLabelPosition=bottom;verticalAlign=top;fillColor=#21C0A5;strokeColor=#006658;fontSize=12;labelBackgroundColor=none;labelBorderColor=#000000;" vertex="1" parent="1">
          <mxGeometry x="250" y="396.88" width="89.82" height="87.12" as="geometry" />
        </mxCell>
      </root>
    </mxGraphModel>
  </diagram>
</mxfile>
